<svg version="1.1" xmlns="http://www.w3.org/2000/svg" viewBox="0 0 43.82720962148176 43.00106186235814" width="43.82720962148176" height="43.00106186235814">
    <g transform="translate(10 10.001061862358142)">
        <path d="M11.8 2.85V20.15H8.75V5.5L4.95 7.1V4.55L8.9 2.85H11.8Z"></path>
    </g>
    <g transform="translate(16.072158198893703 14.852666354980101) rotate(343.31634511019007 6.203115195261773 7.48277847013793)">
        <path d="M0.93 1.95L3.48 9.2H0.58L2.05 5.35L0.21 1.95H0.93ZM4.18 1.95L5.83 9.2H4.88L4.1 6.6L2.68 1.95H4.18ZM7.4 1.95L9.05 9.2H8.1L7.33 6.6L5.9 1.95H7.4ZM9.71 1.95L12.25 9.2H9.36L10.82 5.35L9 1.95H9.71Z"></path>
    </g>
    <g transform="translate(26.12720981221662 10)">
        <path d="M0 2.85V20.15H3.05V5.5L6.85 7.1V4.55L2.9 2.85H0Z"></path>
    </g>
</svg>
